<svg height="512pt" viewBox="0 0 512 512" width="512pt" xmlns="http://www.w3.org/2000/svg"><path d="m486.398438 0h-247.464844c-14.140625 0-25.601563 11.460938-25.601563 25.601562v196.265626c0 14.136718 11.460938 25.597656 25.601563 25.597656h247.464844c14.140624 0 25.601562-11.460938 25.601562-25.597656v-196.265626c0-14.140624-11.460938-25.601562-25.601562-25.601562zm-256 51.199219h264.535156v145.066406h-264.535156zm8.535156-34.132813h247.464844c4.714843 0 8.535156 3.820313 8.535156 8.535156v8.53125h-264.535156v-8.53125c0-4.714843 3.820312-8.535156 8.535156-8.535156zm247.464844 213.332032h-247.464844c-4.714844 0-8.535156-3.820313-8.535156-8.53125v-8.535157h264.535156v8.535157c0 4.710937-3.820313 8.53125-8.535156 8.53125zm0 0"/><path d="m404.480469 105.8125-53.675781-35.796875c-5.238282-3.492187-11.972657-3.820313-17.523438-.851563-5.550781 2.972657-9.015625 8.753907-9.015625 15.050782v77.542968c0 6.519532 3.714844 12.472657 9.574219 15.335938s12.835937 2.136719 17.980468-1.871094l53.683594-41.753906c4.324219-3.371094 6.761719-8.609375 6.558594-14.089844-.199219-5.476562-3.023438-10.523437-7.582031-13.566406zm-63.148438 55.945312v-77.542968l53.683594 35.78125zm0 0"/><path d="m179.199219 42.667969c0-14.140625-11.460938-25.601563-25.597657-25.601563-14.140624 0-25.601562 11.460938-25.601562 25.601563h-93.867188c-4.710937 0-8.53125 3.820312-8.53125 8.53125 0 4.714843 3.820313 8.535156 8.53125 8.535156h93.867188c0 14.136719 11.460938 25.597656 25.601562 25.597656 14.136719 0 25.597657-11.460937 25.597657-25.597656 4.714843 0 8.535156-3.820313 8.535156-8.535156 0-4.710938-3.820313-8.53125-8.535156-8.53125zm-17.066407 17.066406c0 4.710937-3.820312 8.53125-8.53125 8.53125-4.714843 0-8.535156-3.820313-8.535156-8.53125v-17.066406c0-4.714844 3.820313-8.535157 8.535156-8.535157 4.710938 0 8.53125 3.820313 8.53125 8.535157zm0 0"/><path d="m179.199219 110.933594h-68.265625c0-14.140625-11.460938-25.601563-25.601563-25.601563-14.136719 0-25.597656 11.460938-25.597656 25.601563h-25.601563c-4.710937 0-8.53125 3.820312-8.53125 8.53125 0 4.714844 3.820313 8.535156 8.53125 8.535156h25.601563c0 14.136719 11.460937 25.601562 25.597656 25.601562 14.140625 0 25.601563-11.464843 25.601563-25.601562h68.265625c4.714843 0 8.535156-3.820312 8.535156-8.535156 0-4.710938-3.820313-8.53125-8.535156-8.53125zm-85.332031 17.066406c0 4.710938-3.820313 8.535156-8.535157 8.535156-4.710937 0-8.53125-3.824218-8.53125-8.535156v-17.066406c0-4.714844 3.820313-8.535156 8.53125-8.535156 4.714844 0 8.535157 3.820312 8.535157 8.535156zm0 0"/><path d="m187.734375 196.265625c0-4.710937-3.820313-8.53125-8.535156-8.53125h-17.066407c0-14.140625-11.460937-25.601563-25.597656-25.601563-14.140625 0-25.601562 11.460938-25.601562 25.601563h-76.800782c-4.710937 0-8.53125 3.820313-8.53125 8.53125 0 4.714844 3.820313 8.535156 8.53125 8.535156h76.800782c0 14.136719 11.460937 25.597657 25.601562 25.597657 14.136719 0 25.597656-11.460938 25.597656-25.597657h17.066407c4.714843 0 8.535156-3.820312 8.535156-8.535156zm-42.667969 8.535156c0 4.710938-3.820312 8.53125-8.53125 8.53125-4.714844 0-8.535156-3.820312-8.535156-8.53125v-17.066406c0-4.714844 3.820312-8.535156 8.535156-8.535156 4.710938 0 8.53125 3.820312 8.53125 8.535156zm0 0"/><path d="m486.398438 324.265625h-93.863282v-11.792969l7.679688-3.8125c5.777344-2.890625 9.414062-8.808594 9.386718-15.265625v-20.328125c0-9.425781-7.640624-17.066406-17.066406-17.066406h-17.070312c-9.425782 0-17.066406 7.640625-17.066406 17.066406v20.328125c-.027344 6.457031 3.609374 12.375 9.386718 15.265625l7.679688 3.8125v11.792969h-349.863282c-14.140624 0-25.601562 11.460937-25.601562 25.601563v136.53125c0 14.140624 11.460938 25.601562 25.601562 25.601562h460.796876c14.140624 0 25.601562-11.460938 25.601562-25.601562v-136.53125c0-14.140626-11.460938-25.601563-25.601562-25.601563zm-110.933594-51.199219h17.070312v20.328125l-8.535156 4.265625-8.535156-4.265625zm-358.398438 76.800782c0-4.714844 3.820313-8.535157 8.535156-8.535157h102.398438v68.269531h-110.933594zm8.535156 145.066406c-4.714843 0-8.535156-3.820313-8.535156-8.535156v-59.730469h110.933594v68.265625zm469.332032-8.535156c0 4.714843-3.820313 8.535156-8.535156 8.535156h-341.332032v-153.601563h230.398438v51.203125h-204.796875c-4.714844 0-8.535157 3.820313-8.535157 8.53125 0 4.714844 3.820313 8.535156 8.535157 8.535156h204.796875v51.199219h-204.796875c-4.714844 0-8.535157 3.820313-8.535157 8.53125 0 4.714844 3.820313 8.535157 8.535157 8.535157h204.796875v8.53125c0 4.714843 3.824218 8.535156 8.535156 8.535156s8.535156-3.820313 8.535156-8.535156v-8.53125h76.796875c4.714844 0 8.535157-3.820313 8.535157-8.535157 0-4.710937-3.820313-8.53125-8.535157-8.53125h-76.796875v-51.199219h25.597656c4.714844 0 8.535157-3.820312 8.535157-8.535156 0-4.710937-3.820313-8.53125-8.535157-8.53125h-25.597656v-51.203125h93.863282c4.714843 0 8.535156 3.820313 8.535156 8.535157zm0 0"/><path d="m51.199219 375.464844c0 4.714844-3.820313 8.535156-8.53125 8.535156-4.714844 0-8.535157-3.820312-8.535157-8.535156 0-4.710938 3.820313-8.53125 8.535157-8.53125 4.710937 0 8.53125 3.820312 8.53125 8.53125zm0 0"/><path d="m102.398438 366.933594h-25.597657c-4.714843 0-8.535156 3.820312-8.535156 8.53125 0 4.714844 3.820313 8.535156 8.535156 8.535156h25.597657c4.714843 0 8.535156-3.820312 8.535156-8.535156 0-4.710938-3.820313-8.53125-8.535156-8.53125zm0 0"/><path d="m51.199219 460.800781c0 4.710938-3.820313 8.53125-8.53125 8.53125-4.714844 0-8.535157-3.820312-8.535157-8.53125 0-4.714843 3.820313-8.535156 8.535157-8.535156 4.710937 0 8.53125 3.820313 8.53125 8.535156zm0 0"/><path d="m102.398438 452.265625h-25.597657c-4.714843 0-8.535156 3.820313-8.535156 8.535156 0 4.710938 3.820313 8.53125 8.535156 8.53125h25.597657c4.714843 0 8.535156-3.820312 8.535156-8.53125 0-4.714843-3.820313-8.535156-8.535156-8.535156zm0 0"/><path d="m8.535156 281.601562v8.53125c0 14.140626 11.460938 25.601563 25.597656 25.601563 14.140626 0 25.601563-11.460937 25.601563-25.601563v-8.53125c0-14.140624-11.460937-25.601562-25.601563-25.601562-14.136718 0-25.597656 11.460938-25.597656 25.601562zm34.132813 0v8.53125c0 4.714844-3.820313 8.535157-8.535157 8.535157-4.710937 0-8.53125-3.820313-8.53125-8.535157v-8.53125c0-4.714843 3.820313-8.535156 8.53125-8.535156 4.714844 0 8.535157 3.820313 8.535157 8.535156zm0 0"/><path d="m93.867188 256c-14.140626 0-25.601563 11.460938-25.601563 25.601562v8.53125c0 14.140626 11.460937 25.601563 25.601563 25.601563 14.136718 0 25.597656-11.460937 25.597656-25.601563v-8.53125c0-14.140624-11.460938-25.601562-25.597656-25.601562zm8.53125 34.132812c0 4.714844-3.820313 8.535157-8.53125 8.535157-4.714844 0-8.535157-3.820313-8.535157-8.535157v-8.53125c0-4.714843 3.820313-8.535156 8.535157-8.535156 4.710937 0 8.53125 3.820313 8.53125 8.535156zm0 0"/><path d="m221.867188 315.734375c14.136718 0 25.597656-11.460937 25.597656-25.601563v-8.53125c0-14.140624-11.460938-25.601562-25.597656-25.601562-14.140626 0-25.601563 11.460938-25.601563 25.601562v8.53125c0 14.140626 11.460937 25.601563 25.601563 25.601563zm-8.535157-34.132813c0-4.714843 3.820313-8.535156 8.535157-8.535156 4.710937 0 8.53125 3.820313 8.53125 8.535156v8.53125c0 4.714844-3.820313 8.535157-8.53125 8.535157-4.714844 0-8.535157-3.820313-8.535157-8.535157zm0 0"/><path d="m145.066406 273.066406c0 4.714844-3.820312 8.535156-8.53125 8.535156-4.714844 0-8.535156-3.820312-8.535156-8.535156 0-4.710937 3.820312-8.53125 8.535156-8.53125 4.710938 0 8.53125 3.820313 8.53125 8.53125zm0 0"/><path d="m145.066406 298.667969c0 4.710937-3.820312 8.53125-8.53125 8.53125-4.714844 0-8.535156-3.820313-8.535156-8.53125 0-4.714844 3.820312-8.535157 8.535156-8.535157 4.710938 0 8.53125 3.820313 8.53125 8.535157zm0 0"/><path d="m170.667969 315.734375c4.710937 0 8.53125-3.820313 8.53125-8.535156v-42.664063c0-3.453125-2.078125-6.5625-5.265625-7.882812-3.191406-1.320313-6.859375-.59375-9.300782 1.847656l-8.53125 8.535156c-2.441406 2.4375-3.171874 6.109375-1.851562 9.296875s4.433594 5.265625 7.882812 5.269531v25.597657c0 4.714843 3.820313 8.535156 8.535157 8.535156zm0 0"/><path d="m179.199219 366.933594c0 4.710937-3.820313 8.53125-8.53125 8.53125-4.714844 0-8.535157-3.820313-8.535157-8.53125 0-4.714844 3.820313-8.535156 8.535157-8.535156 4.710937 0 8.53125 3.820312 8.53125 8.535156zm0 0"/><path d="m273.066406 366.933594c0 4.710937-3.820312 8.53125-8.53125 8.53125-4.714844 0-8.535156-3.820313-8.535156-8.53125 0-4.714844 3.820312-8.535156 8.535156-8.535156 4.710938 0 8.53125 3.820312 8.53125 8.535156zm0 0"/><path d="m230.398438 435.199219c0 4.714843-3.820313 8.535156-8.53125 8.535156-4.714844 0-8.535157-3.820313-8.535157-8.535156 0-4.710938 3.820313-8.53125 8.535157-8.53125 4.710937 0 8.53125 3.820312 8.53125 8.53125zm0 0"/><path d="m324.265625 435.199219c0 4.714843-3.820313 8.535156-8.53125 8.535156-4.714844 0-8.535156-3.820313-8.535156-8.535156 0-4.710938 3.820312-8.53125 8.535156-8.53125 4.710937 0 8.53125 3.820312 8.53125 8.53125zm0 0"/><path d="m298.667969 366.933594c0 4.710937-3.820313 8.53125-8.535157 8.53125-4.710937 0-8.53125-3.820313-8.53125-8.53125 0-4.714844 3.820313-8.535156 8.53125-8.535156 4.714844 0 8.535157 3.820312 8.535157 8.535156zm0 0"/><path d="m358.398438 366.933594c0 4.710937-3.820313 8.53125-8.53125 8.53125-4.714844 0-8.535157-3.820313-8.535157-8.53125 0-4.714844 3.820313-8.535156 8.535157-8.535156 4.710937 0 8.53125 3.820312 8.53125 8.535156zm0 0"/><path d="m426.667969 366.933594c0 4.710937-3.820313 8.53125-8.535157 8.53125-4.710937 0-8.53125-3.820313-8.53125-8.53125 0-4.714844 3.820313-8.535156 8.53125-8.535156 4.714844 0 8.535157 3.820312 8.535157 8.535156zm0 0"/></svg>